<?xml version="1.0" standalone="no"?>
<!DOCTYPE svg PUBLIC "-//W3C//DTD SVG 20010904//EN"
 "http://www.w3.org/TR/2001/REC-SVG-20010904/DTD/svg10.dtd">
<svg version="1.0" xmlns="http://www.w3.org/2000/svg"
 width="1120.000000pt" height="1120.000000pt" viewBox="0 0 1120.000000 1120.000000"
 preserveAspectRatio="xMidYMid meet">
<metadata>
Created by potrace 1.14, written by Peter Selinger 2001-2017
</metadata>
<g transform="translate(0.000000,1120.000000) scale(0.100000,-0.100000)"
fill="#000000" stroke="none">
<path d="M5579 9913 c-13 -16 -12 -17 4 -4 9 7 17 15 17 17 0 8 -8 3 -21 -13z"/>
<path d="M6666 9922 c-3 -5 1 -9 9 -9 8 0 12 4 9 9 -3 4 -7 8 -9 8 -2 0 -6 -4
-9 -8z"/>
<path d="M6669 9843 c-13 -16 -12 -17 4 -4 9 7 17 15 17 17 0 8 -8 3 -21 -13z"/>
<path d="M6830 9840 c0 -5 5 -10 11 -10 5 0 7 5 4 10 -3 6 -8 10 -11 10 -2 0
-4 -4 -4 -10z"/>
<path d="M6109 9723 c-13 -16 -12 -17 4 -4 9 7 17 15 17 17 0 8 -8 3 -21 -13z"/>
<path d="M5307 9719 c7 -7 15 -10 18 -7 3 3 -2 9 -12 12 -14 6 -15 5 -6 -5z"/>
<path d="M5976 9702 c-3 -5 1 -9 9 -9 8 0 12 4 9 9 -3 4 -7 8 -9 8 -2 0 -6 -4
-9 -8z"/>
<path d="M6174 9702 c4 -3 14 -7 22 -8 9 -1 13 0 10 4 -4 3 -14 7 -22 8 -9 1
-13 0 -10 -4z"/>
<path d="M6274 9702 c4 -3 14 -7 22 -8 9 -1 13 0 10 4 -4 3 -14 7 -22 8 -9 1
-13 0 -10 -4z"/>
<path d="M5717 9684 c-7 -8 -31 -11 -125 -17 -29 -2 -55 -7 -59 -10 -3 -4 -13
-1 -21 6 -13 9 -14 9 -8 0 7 -13 -15 -16 -91 -17 -13 0 -23 -4 -23 -9 0 -5 -8
-6 -17 -3 -9 4 -19 2 -23 -4 -4 -6 -29 -12 -57 -13 -28 -1 -48 -6 -45 -11 3
-5 -2 -7 -10 -3 -9 3 -19 2 -24 -3 -8 -7 -58 -18 -101 -22 -7 -1 -13 -5 -13
-10 0 -4 -3 -7 -7 -6 -11 2 -86 -13 -98 -21 -5 -3 -19 -7 -29 -8 -11 -2 -26
-9 -33 -15 -11 -9 -17 -8 -24 3 -7 12 -9 12 -9 -2 0 -9 -6 -16 -12 -17 -28 -2
-47 -9 -62 -21 -9 -7 -16 -11 -16 -7 0 3 -17 -1 -37 -10 -21 -9 -42 -17 -48
-18 -5 -1 -21 -8 -34 -15 -19 -11 -22 -11 -16 1 3 7 1 6 -7 -2 -7 -9 -29 -22
-48 -29 -19 -8 -57 -24 -85 -36 -27 -13 -54 -24 -60 -25 -5 -1 -22 -11 -37
-21 -14 -10 -33 -19 -42 -19 -9 0 -16 -4 -16 -10 0 -5 -3 -9 -7 -8 -11 3 -83
-32 -112 -54 -13 -10 -27 -15 -32 -12 -5 3 -9 0 -9 -6 0 -6 -5 -8 -10 -5 -6 3
-13 -1 -16 -9 -3 -9 -10 -13 -15 -10 -5 3 -9 2 -9 -3 0 -4 -34 -26 -75 -48
-41 -21 -75 -43 -75 -46 0 -4 -12 -14 -27 -21 -45 -23 -76 -42 -91 -56 -8 -7
-21 -11 -28 -8 -9 3 -11 0 -7 -11 4 -10 2 -14 -5 -9 -6 3 -15 -2 -21 -11 -6
-10 -11 -14 -11 -10 0 5 -17 -5 -37 -22 -20 -16 -40 -28 -45 -25 -4 3 -8 -2
-8 -10 0 -9 -6 -16 -13 -16 -7 0 -25 -11 -40 -26 -15 -14 -32 -22 -39 -18 -6
4 -8 3 -5 -3 4 -6 -6 -19 -21 -29 -15 -9 -32 -25 -39 -33 -7 -9 -13 -12 -13
-7 0 5 -8 -1 -19 -12 -10 -12 -21 -22 -24 -22 -7 0 -50 -36 -91 -76 -17 -17
-39 -34 -49 -37 -10 -4 -16 -11 -12 -17 3 -5 -5 -12 -19 -16 -14 -3 -24 -9
-23 -13 3 -11 -60 -71 -67 -64 -3 4 -6 2 -6 -4 0 -15 -101 -118 -112 -115 -5
1 -7 -2 -4 -7 4 -5 -11 -27 -31 -48 -21 -22 -50 -55 -65 -75 -15 -20 -34 -42
-41 -50 -7 -7 -30 -38 -50 -68 -20 -30 -42 -61 -47 -67 -6 -7 -10 -15 -10 -18
1 -21 -2 -25 -17 -25 -14 0 -15 -2 -4 -9 8 -5 10 -14 6 -22 -12 -18 -15 -80
-4 -73 5 3 12 -2 15 -10 3 -9 12 -16 19 -16 7 0 16 -6 18 -12 4 -10 6 -10 6 0
1 9 7 10 19 4 18 -9 78 -8 182 4 36 4 75 7 88 8 12 0 22 3 22 7 0 4 8 8 18 8
24 0 107 9 107 11 0 2 26 4 58 5 31 2 57 -1 57 -5 0 -4 10 -7 23 -6 41 3 209
-76 204 -96 -1 -7 6 -12 16 -13 17 0 97 -80 97 -97 0 -4 -11 -9 -25 -9 -14 -1
-31 -2 -37 -3 -7 -1 -19 2 -26 8 -9 7 -12 5 -10 -4 2 -8 -7 -14 -22 -15 -14
-2 -34 -6 -44 -11 -12 -4 -17 -4 -13 3 3 5 0 10 -8 10 -8 0 -12 -4 -9 -9 5 -8
-7 -10 -53 -11 -13 -1 -23 -5 -23 -10 0 -4 -8 -7 -17 -6 -10 1 -25 -1 -33 -4
-8 -4 -24 -8 -35 -10 -11 -1 -26 -6 -33 -11 -7 -4 -16 -5 -19 -2 -3 3 -12 1
-20 -5 -7 -6 -13 -9 -13 -6 0 3 -30 -3 -66 -13 -37 -11 -70 -17 -75 -15 -4 3
-10 1 -14 -5 -4 -6 -11 -8 -16 -5 -5 4 -9 1 -9 -6 0 -8 -5 -7 -17 2 -11 10
-14 10 -9 2 4 -7 2 -14 -3 -14 -12 -2 -26 -5 -38 -9 -5 -1 -11 -2 -15 -1 -5 0
-8 -4 -8 -10 0 -5 -5 -7 -10 -4 -6 4 -16 2 -23 -3 -7 -5 -20 -8 -29 -7 -10 2
-18 0 -18 -5 0 -7 -36 -17 -77 -22 -7 -1 -13 -5 -13 -8 0 -4 -15 -11 -32 -15
-36 -8 -45 -11 -53 -15 -3 -1 -9 -4 -15 -5 -5 -1 -12 -4 -15 -5 -3 -1 -8 -3
-12 -5 -5 -1 -19 -6 -33 -12 -14 -6 -41 -17 -61 -26 -28 -11 -40 -12 -49 -4
-10 9 -11 9 -6 0 7 -13 -29 -37 -43 -29 -5 3 -12 -1 -15 -10 -4 -10 -14 -14
-26 -11 -11 3 -18 2 -15 -3 4 -7 -15 -16 -54 -25 -8 -2 -18 -10 -22 -17 -5 -7
-9 -10 -9 -6 0 4 -16 -1 -35 -12 -20 -11 -40 -20 -44 -20 -5 0 -36 -15 -69
-34 -33 -19 -63 -32 -66 -29 -3 3 -8 -2 -12 -11 -5 -14 -9 -14 -22 -4 -11 9
-14 9 -9 1 9 -15 -48 -47 -65 -37 -7 4 -8 3 -4 -4 4 -7 1 -12 -9 -12 -9 0 -13
-4 -10 -10 6 -9 -8 -14 -27 -11 -5 0 -8 -4 -8 -9 0 -6 -7 -10 -15 -10 -8 0
-15 -4 -15 -10 0 -5 -7 -10 -15 -10 -8 0 -15 -4 -15 -10 0 -5 -11 -12 -25 -16
-14 -3 -25 -10 -25 -15 0 -5 -7 -9 -15 -9 -9 0 -18 -7 -21 -15 -4 -8 -10 -13
-14 -10 -5 3 -12 0 -17 -7 -13 -21 -71 -58 -85 -55 -7 2 -10 2 -5 0 13 -8 7
-25 -7 -20 -11 4 -13 1 -9 -10 4 -9 2 -14 -3 -10 -5 3 -27 -10 -48 -29 -21
-19 -42 -34 -48 -34 -5 0 -6 -4 -3 -10 3 -5 0 -10 -7 -10 -7 0 -19 -9 -26 -21
-7 -11 -19 -18 -27 -15 -9 3 -12 0 -8 -10 4 -10 -2 -17 -16 -21 -11 -3 -21
-11 -21 -17 0 -11 -35 -46 -46 -46 -3 0 -12 -7 -20 -15 -9 -8 -13 -15 -10 -15
2 0 -17 -22 -44 -50 -27 -27 -46 -50 -44 -50 3 0 -11 -15 -30 -34 -20 -18 -36
-38 -36 -43 0 -18 -38 -45 -52 -37 -11 6 -11 5 0 -8 14 -17 1 -35 -17 -24 -5
4 -7 -3 -4 -14 3 -12 -1 -22 -11 -26 -9 -3 -16 -12 -16 -20 0 -8 -5 -14 -11
-14 -5 0 -7 -5 -3 -12 5 -7 2 -9 -8 -6 -8 4 -15 1 -15 -6 0 -6 -32 -59 -71
-118 -39 -58 -68 -108 -65 -112 4 -3 1 -6 -5 -6 -7 0 -12 -7 -12 -15 0 -8 -4
-15 -10 -15 -5 0 -10 -7 -10 -16 0 -11 -5 -14 -16 -10 -13 5 -14 3 -6 -6 8
-10 6 -20 -8 -38 -11 -14 -20 -31 -20 -37 0 -7 -5 -13 -11 -13 -5 0 -8 -4 -4
-9 3 -5 -1 -15 -8 -23 -15 -15 -31 -49 -29 -60 1 -5 -3 -8 -8 -8 -6 0 -10 -7
-10 -16 0 -9 -5 -12 -12 -8 -6 4 -8 3 -4 -4 7 -12 -13 -62 -25 -62 -5 0 -6 -7
-3 -15 4 -8 1 -15 -5 -15 -6 0 -10 -3 -9 -7 1 -5 -8 -29 -19 -56 -12 -26 -23
-51 -24 -55 0 -4 -6 -16 -12 -27 -6 -11 -12 -24 -12 -30 -1 -5 -7 -9 -14 -7
-7 1 -10 -2 -6 -7 8 -13 -5 -62 -15 -56 -4 3 -8 -1 -7 -8 1 -34 -4 -48 -15
-41 -7 4 -8 3 -4 -5 7 -11 -18 -94 -37 -118 -5 -7 -6 -17 -3 -22 4 -5 1 -13
-5 -16 -5 -4 -8 -13 -5 -21 3 -8 1 -14 -5 -14 -6 0 -7 -4 -4 -10 3 -5 1 -10
-5 -10 -6 0 -9 -4 -5 -10 6 -9 4 -14 -28 -78 -9 -18 -12 -30 -5 -26 7 4 8 3 4
-4 -4 -7 -9 -22 -12 -34 -3 -13 -7 -30 -9 -38 -2 -8 -4 -19 -4 -24 -1 -4 -9
-5 -18 -2 -16 5 -16 5 0 -8 14 -11 16 -19 9 -33 -12 -21 -12 -23 -12 -64 0
-21 -4 -28 -12 -23 -10 6 -10 5 -1 -8 7 -8 10 -18 7 -21 -4 -4 -8 -19 -10 -34
-10 -93 -15 -142 -19 -168 -10 -79 -17 -199 -17 -290 1 -179 23 -274 67 -292
25 -11 75 -5 75 8 0 6 5 7 10 4 9 -5 180 156 180 170 0 8 64 98 87 122 12 13
20 23 17 23 -6 0 57 93 68 101 5 3 18 23 30 45 11 21 23 41 27 44 3 3 12 17
20 32 8 15 22 37 33 47 10 11 18 25 18 31 0 5 3 10 8 10 4 0 22 14 41 30 18
17 40 30 47 30 8 0 14 3 14 8 0 13 137 61 230 79 43 9 226 7 241 -3 15 -9 20
-10 62 -12 19 -1 26 -6 21 -14 -4 -7 -3 -8 4 -4 14 8 111 -45 152 -84 16 -15
30 -25 30 -22 0 3 18 -11 40 -33 21 -21 36 -43 33 -48 -3 -6 -2 -7 4 -4 11 7
153 -136 153 -154 0 -5 4 -8 9 -5 5 4 11 2 13 -3 3 -10 129 -150 196 -217 23
-24 42 -48 42 -54 0 -5 4 -10 9 -10 8 0 71 -57 71 -65 0 -2 11 -15 25 -29 14
-14 25 -23 25 -21 0 2 26 -22 57 -53 31 -32 56 -60 55 -64 -1 -5 2 -7 6 -5 7
2 104 -77 148 -120 7 -7 15 -13 18 -13 7 0 40 -26 74 -60 14 -14 29 -25 32
-25 3 0 4 -3 3 -7 -2 -5 0 -8 5 -7 15 2 52 -14 52 -23 0 -5 -6 -6 -12 -2 -8 4
-9 3 -5 -2 5 -5 16 -9 25 -9 9 0 16 -6 14 -13 -1 -8 2 -11 8 -7 6 4 26 -5 45
-19 18 -14 37 -26 42 -26 4 0 21 -10 36 -23 l29 -22 -58 -40 c-32 -22 -61 -39
-66 -38 -4 2 -5 -4 -2 -12 4 -8 1 -15 -4 -15 -12 0 -62 -47 -62 -57 0 -3 -6
-11 -14 -17 -8 -6 -39 -43 -69 -83 -30 -40 -58 -69 -61 -65 -4 3 -4 -1 0 -11
3 -10 1 -17 -5 -17 -6 0 -11 -5 -11 -10 0 -6 -16 -36 -36 -67 -32 -50 -143
-256 -144 -268 0 -3 -10 -26 -22 -52 -11 -27 -21 -54 -21 -61 0 -7 -5 -11 -11
-9 -6 3 -12 -10 -13 -31 -1 -19 -7 -38 -13 -42 -7 -4 -11 -11 -10 -16 1 -7
-22 -78 -47 -144 -3 -8 -7 -26 -9 -40 -2 -14 -6 -34 -8 -45 -3 -11 -5 -30 -5
-43 -1 -15 -5 -21 -13 -16 -7 5 -8 3 -2 -7 10 -16 6 -59 -7 -75 -5 -6 -6 -14
-2 -18 4 -3 6 -23 5 -44 -8 -191 -8 -212 2 -216 8 -3 7 -5 0 -5 -11 -1 -10
-53 1 -72 4 -5 0 -9 -7 -9 -9 0 -9 -3 -2 -8 6 -4 11 -14 11 -22 0 -8 8 -44 17
-80 38 -149 128 -146 274 9 24 25 52 57 63 71 10 14 33 43 50 65 17 22 40 53
52 69 12 15 30 36 40 44 9 9 17 20 17 24 0 9 49 63 58 64 10 1 64 22 82 32 8
4 30 8 48 7 17 0 32 4 32 8 0 5 8 7 18 6 9 -1 19 0 22 1 24 12 250 23 400 20
8 0 29 0 45 0 44 -1 106 -7 135 -15 14 -3 32 -8 40 -10 8 -2 16 -4 18 -5 3 -3
19 -7 33 -9 5 0 7 -5 4 -11 -3 -5 0 -7 9 -4 8 3 25 0 38 -7 13 -7 27 -13 31
-14 4 0 11 -4 15 -10 4 -5 16 -12 27 -13 11 -2 31 -12 45 -21 14 -9 46 -28 73
-42 26 -13 47 -27 47 -31 0 -5 9 -8 21 -8 11 0 18 -4 14 -9 -3 -5 4 -12 15
-16 11 -3 56 -31 100 -61 44 -30 85 -54 91 -54 5 0 7 -4 4 -10 -3 -5 -1 -10 5
-10 12 0 71 -39 82 -55 4 -5 8 -6 8 -1 0 5 7 3 15 -4 9 -7 13 -20 10 -28 -4
-12 -2 -12 8 -4 10 9 18 7 33 -6 33 -28 83 -62 93 -62 5 0 11 -3 13 -7 5 -12
66 -53 78 -53 5 0 10 -4 10 -10 0 -5 7 -10 15 -10 8 0 15 -4 15 -10 0 -5 6
-10 13 -10 7 0 23 -9 34 -19 12 -11 23 -18 26 -15 2 2 10 -2 17 -11 7 -8 19
-15 26 -15 8 0 14 -4 14 -10 0 -5 6 -10 14 -10 7 0 19 -7 26 -15 7 -8 16 -12
21 -9 5 3 9 2 9 -3 0 -4 27 -21 60 -38 33 -16 60 -32 60 -35 0 -4 6 -7 13 -7
6 0 47 -17 89 -37 43 -20 79 -36 80 -35 2 1 22 -8 46 -20 23 -12 42 -19 42
-16 0 3 13 -1 29 -10 17 -8 38 -17 48 -18 10 -2 25 -7 33 -10 40 -16 119 -35
124 -30 3 4 6 2 6 -3 0 -5 19 -10 42 -11 24 -2 44 -7 46 -11 1 -5 18 -7 37 -6
19 2 35 0 35 -4 0 -4 32 -7 70 -7 38 0 70 -2 70 -5 0 -3 43 -5 95 -5 52 0 95
4 95 8 0 5 6 5 12 1 18 -11 48 -12 48 -2 0 5 9 4 19 -2 11 -5 22 -7 24 -2 3 4
43 7 89 7 45 0 86 5 90 10 5 6 8 6 8 -2 0 -8 9 -9 28 -4 15 4 57 7 94 7 38 -1
68 2 68 5 0 3 21 6 48 7 51 1 187 10 187 12 0 1 18 4 40 6 22 2 65 6 95 9 30
3 75 7 100 9 25 2 45 5 45 6 0 1 18 3 40 5 56 6 113 13 160 19 22 3 57 8 78
11 35 5 77 11 140 20 15 2 47 7 70 10 23 4 64 11 91 16 27 5 51 7 54 4 3 -3
11 0 19 6 7 6 22 9 33 6 11 -3 20 -2 20 3 0 7 72 21 125 25 11 1 27 5 35 8 8
4 26 9 40 11 14 3 40 9 58 15 18 5 36 10 40 11 29 4 52 14 52 22 0 5 4 7 8 4
11 -6 96 36 119 60 33 32 28 68 -13 102 -21 17 -41 29 -45 26 -4 -2 -10 0 -14
6 -4 6 -11 8 -16 5 -5 -4 -9 -2 -9 4 0 6 -6 8 -13 5 -7 -2 -31 2 -54 10 -23 8
-44 12 -47 9 -3 -3 -12 0 -21 7 -12 10 -15 10 -15 0 0 -8 -4 -9 -12 -3 -7 5
-62 10 -123 12 -62 2 -116 8 -124 15 -12 8 -13 8 -7 -2 6 -10 -4 -13 -48 -11
-31 1 -56 6 -56 11 0 5 -6 6 -12 2 -18 -11 -48 -12 -48 -2 0 5 -8 4 -19 -1
-10 -6 -21 -8 -25 -4 -3 3 -38 7 -78 9 -40 1 -73 3 -73 4 0 0 -18 3 -40 5 -90
8 -156 17 -265 36 -63 12 -128 23 -145 26 -16 3 -38 9 -47 14 -9 5 -21 9 -25
8 -4 -1 -10 0 -13 1 -9 3 -44 10 -62 12 -10 1 -18 5 -18 9 0 4 -11 7 -25 7
-34 0 -41 8 -24 29 13 17 13 17 -7 0 -13 -10 -29 -15 -40 -11 -58 19 -73 27
-67 38 4 6 -1 5 -10 -3 -13 -10 -20 -11 -30 -2 -8 6 -18 7 -22 3 -5 -4 -5 2
-1 13 6 16 4 17 -5 8 -12 -12 -85 11 -201 61 -21 9 -38 13 -38 9 0 -5 -4 -3
-8 2 -10 15 -49 35 -67 35 -8 0 -15 5 -15 12 0 6 -3 8 -7 5 -3 -4 -12 -2 -20
4 -7 6 -13 8 -13 5 0 -9 -84 36 -88 47 -2 4 -12 7 -23 7 -10 0 -19 5 -19 11 0
5 -4 8 -9 4 -5 -3 -15 0 -23 7 -7 7 -25 19 -40 27 -16 8 -28 18 -28 22 0 4 -9
6 -20 4 -21 -4 -27 9 -10 20 6 3 10 11 10 18 0 6 -6 2 -14 -8 -12 -16 -16 -17
-30 -6 -9 7 -16 10 -16 6 0 -5 -8 2 -19 13 -10 12 -25 22 -33 22 -8 0 -25 10
-38 22 -14 13 -27 23 -30 23 -3 0 -4 4 -2 9 2 5 -4 6 -13 2 -9 -3 -18 1 -21 9
-4 8 -9 13 -14 10 -4 -2 -16 4 -26 13 -10 10 -27 21 -37 25 -11 4 -15 12 -11
18 4 7 3 9 -4 5 -6 -3 -17 1 -25 9 -9 8 -20 15 -26 15 -6 0 -11 5 -11 10 0 6
-6 10 -14 10 -8 0 -17 7 -20 16 -4 9 -9 14 -13 10 -3 -3 -13 3 -20 14 -8 11
-19 18 -24 15 -5 -4 -9 1 -9 10 0 9 -4 14 -9 10 -6 -3 -14 3 -20 12 -6 10 -11
14 -11 10 0 -4 -10 2 -23 15 -13 13 -37 34 -54 48 -17 13 -29 28 -27 32 3 4
-2 5 -10 2 -15 -6 -21 6 -17 29 1 5 -3 6 -8 3 -5 -3 -14 1 -21 9 -7 8 -17 15
-22 15 -12 0 -54 52 -50 62 1 5 -2 7 -6 6 -4 -2 -23 9 -41 25 -18 15 -30 27
-27 27 3 0 -6 11 -20 25 -14 14 -29 25 -34 25 -6 0 -10 3 -10 8 0 4 -29 38
-65 76 -35 38 -61 74 -58 79 3 6 2 7 -3 4 -5 -3 -21 9 -34 26 -14 17 -33 40
-43 50 -10 10 -19 27 -20 37 -1 10 -7 16 -14 13 -7 -3 -17 6 -22 20 -5 14 -15
28 -21 32 -5 3 -7 12 -4 18 4 7 4 9 -1 5 -9 -8 -35 15 -35 31 0 6 -4 11 -10
11 -5 0 -10 7 -10 15 0 8 -4 15 -8 15 -4 0 -21 22 -37 50 -17 27 -34 50 -38
50 -5 0 -5 5 -2 10 3 6 1 10 -5 10 -7 0 -9 7 -6 16 3 8 2 12 -4 9 -5 -3 -16 7
-25 22 -9 15 -27 46 -40 68 -13 22 -36 63 -51 90 -14 28 -32 53 -38 57 -6 4
-7 8 -2 8 5 0 3 7 -4 15 -7 8 -9 15 -6 15 4 0 -2 10 -13 22 -11 11 -18 25 -15
30 3 4 -1 8 -8 8 -9 0 -9 3 2 10 13 8 12 10 -2 10 -10 0 -18 5 -18 10 0 6 -18
50 -41 98 -23 48 -42 97 -42 109 -1 11 -5 20 -8 18 -6 -4 -34 66 -31 78 1 4
-3 7 -10 7 -6 0 -8 3 -5 7 4 3 0 17 -8 30 -9 13 -13 28 -10 33 3 6 1 10 -4 10
-6 0 -10 3 -9 8 2 9 -13 64 -21 77 -3 6 -6 13 -7 18 -1 4 -3 9 -4 12 -1 3 -4
10 -5 15 -1 6 -3 11 -5 13 -1 1 -3 11 -5 22 -2 11 -12 48 -23 82 -11 34 -17
64 -14 67 3 3 0 6 -8 6 -9 0 -10 3 -1 14 8 9 8 15 2 18 -9 3 -38 113 -47 178
-2 14 -8 45 -14 68 -6 24 -10 49 -9 55 1 7 -1 20 -6 30 -4 9 -5 26 -2 37 3 11
2 20 -2 20 -5 0 -7 16 -6 36 1 19 -2 37 -5 39 -7 5 -11 49 -14 158 0 31 -3 57
-6 57 -11 0 -7 325 4 332 8 6 8 8 0 8 -7 0 -10 21 -9 58 2 31 4 57 5 57 1 0 3
32 6 70 5 97 8 128 15 140 3 6 5 25 4 43 -1 17 2 32 5 32 4 0 5 16 4 35 -2 19
1 37 6 40 5 3 7 16 4 30 -2 13 0 26 5 29 5 3 7 16 3 28 -3 13 -1 19 5 15 6 -4
9 3 8 18 -2 13 11 80 27 147 17 68 31 130 32 138 1 9 5 20 8 25 6 10 29 86 34
113 1 8 6 21 10 30 4 9 9 24 11 32 7 27 17 54 40 110 3 8 7 20 8 26 3 13 32
80 46 106 5 10 9 22 9 28 0 15 73 164 85 172 5 4 7 8 2 8 -10 0 113 232 139
261 8 8 14 20 14 26 0 6 7 16 15 23 8 7 15 20 15 30 0 10 7 21 16 24 8 3 13
10 10 15 -3 5 1 11 9 15 8 3 15 10 15 16 0 12 134 201 171 241 15 16 24 30 22
33 -3 3 4 11 16 18 12 7 21 18 21 23 0 6 29 42 65 80 36 38 65 72 65 75 0 11
64 65 73 62 5 -1 6 1 3 6 -11 18 333 332 363 332 6 0 11 7 11 15 0 8 3 15 8
15 8 0 143 96 152 108 3 4 17 13 32 21 15 8 36 22 47 32 10 10 21 15 25 12 3
-3 8 2 12 11 3 9 10 14 14 11 5 -3 14 0 22 7 17 17 96 68 104 68 3 0 19 9 35
21 16 11 29 17 29 12 0 -4 4 -3 8 4 8 12 210 118 227 118 6 0 12 3 15 6 12 15
143 68 154 62 6 -3 8 -2 3 2 -4 5 7 15 24 22 24 10 35 10 46 2 11 -10 12 -8 7
5 -4 9 -3 16 2 14 5 -1 19 3 32 10 12 7 22 10 22 6 0 -3 7 -1 15 6 8 7 15 9
15 5 0 -4 7 -2 15 5 8 7 15 9 15 5 0 -4 6 -3 13 2 6 5 32 16 57 23 25 7 50 17
56 22 6 4 14 5 17 1 4 -3 13 0 22 7 8 7 15 10 15 6 0 -3 16 0 35 8 19 8 35 13
35 11 0 -2 23 3 50 11 28 8 55 12 60 9 6 -3 10 -2 10 3 0 5 21 13 48 17 26 5
54 10 62 13 8 2 24 5 35 6 11 2 35 6 54 11 19 4 50 9 70 10 20 2 36 4 36 5 0
2 46 8 90 13 11 2 26 6 33 10 6 5 12 4 12 -2 0 -7 8 -7 23 -2 26 9 97 14 224
15 51 1 93 3 93 6 0 3 19 4 42 2 24 -1 99 -4 168 -7 69 -2 154 -7 190 -10 36
-3 92 -7 125 -10 66 -4 237 -8 245 -5 3 1 21 4 40 5 126 12 169 41 137 93 -7
10 -82 55 -97 57 -3 0 -10 3 -16 7 -6 4 -23 9 -38 12 -15 3 -34 10 -42 17 -8
6 -14 9 -14 5 0 -3 -12 -1 -27 5 -28 11 -47 16 -93 25 -14 3 -43 10 -65 16
-22 5 -47 11 -55 13 -8 2 -60 13 -115 25 -171 36 -235 48 -235 42 0 -3 -6 2
-13 13 -9 11 -16 14 -20 7 -8 -12 -49 -4 -59 12 -6 8 -8 8 -8 0 0 -7 -19 -7
-62 2 -34 7 -65 11 -70 8 -4 -3 -8 -1 -8 4 0 4 -12 9 -27 10 -16 0 -46 4 -68
7 -22 4 -48 6 -57 6 -10 0 -18 3 -18 7 0 4 -19 8 -43 9 -56 2 -121 10 -242 29
-22 3 -48 6 -58 6 -11 -1 -15 4 -10 11 4 7 0 6 -10 -2 -11 -9 -21 -10 -29 -4
-7 5 -25 8 -40 7 -16 -2 -28 1 -28 5 0 4 -14 5 -31 3 -25 -4 -30 -2 -24 9 7
11 6 12 -6 3 -12 -9 -33 -11 -41 -5 -4 3 -143 14 -190 15 -21 1 -38 4 -38 8 0
3 -14 4 -31 1 -17 -2 -29 -1 -26 4 3 4 -24 7 -59 6 -35 -1 -66 2 -70 8 -4 6
-11 6 -20 -2 -11 -9 -14 -9 -14 0 0 9 -5 9 -21 0 -12 -6 -19 -7 -16 -2 3 5
-13 9 -36 9 -119 1 -358 13 -368 20 -8 5 -9 3 -4 -6 5 -9 4 -11 -4 -6 -12 8
-311 11 -383 4 -21 -2 -39 0 -41 5 -1 5 -6 5 -10 1z"/>
<path d="M8067 9679 c7 -7 15 -10 18 -7 3 3 -2 9 -12 12 -14 6 -15 5 -6 -5z"/>
<path d="M8386 9678 c3 -5 10 -6 15 -3 13 9 11 12 -6 12 -8 0 -12 -4 -9 -9z"/>
<path d="M6855 9669 c-4 -6 -5 -12 -2 -15 2 -3 7 2 10 11 7 17 1 20 -8 4z"/>
<path d="M5140 9640 c-9 -6 -10 -10 -3 -10 6 0 15 5 18 10 8 12 4 12 -15 0z"/>
<path d="M4980 9600 c-9 -6 -10 -10 -3 -10 6 0 15 5 18 10 8 12 4 12 -15 0z"/>
<path d="M7749 9563 c-13 -16 -12 -17 4 -4 9 7 17 15 17 17 0 8 -8 3 -21 -13z"/>
<path d="M4840 9560 c-9 -6 -10 -10 -3 -10 6 0 15 5 18 10 8 12 4 12 -15 0z"/>
<path d="M4756 9493 c-6 -14 -5 -15 5 -6 7 7 10 15 7 18 -3 3 -9 -2 -12 -12z"/>
<path d="M4230 9479 c0 -5 5 -7 10 -4 6 3 10 8 10 11 0 2 -4 4 -10 4 -5 0 -10
-5 -10 -11z"/>
<path d="M8506 9482 c-3 -5 1 -9 9 -9 8 0 12 4 9 9 -3 4 -7 8 -9 8 -2 0 -6 -4
-9 -8z"/>
<path d="M4476 9433 c-6 -14 -5 -15 5 -6 7 7 10 15 7 18 -3 3 -9 -2 -12 -12z"/>
<path d="M4626 9438 c3 -5 10 -6 15 -3 13 9 11 12 -6 12 -8 0 -12 -4 -9 -9z"/>
<path d="M4030 9360 c0 -5 5 -10 11 -10 5 0 7 5 4 10 -3 6 -8 10 -11 10 -2 0
-4 -4 -4 -10z"/>
<path d="M3796 9153 c-6 -14 -5 -15 5 -6 7 7 10 15 7 18 -3 3 -9 -2 -12 -12z"/>
<path d="M3476 9113 c-6 -14 -5 -15 5 -6 7 7 10 15 7 18 -3 3 -9 -2 -12 -12z"/>
<path d="M3627 8959 c7 -7 15 -10 18 -7 3 3 -2 9 -12 12 -14 6 -15 5 -6 -5z"/>
<path d="M3350 8859 c0 -5 5 -7 10 -4 6 3 10 8 10 11 0 2 -4 4 -10 4 -5 0 -10
-5 -10 -11z"/>
<path d="M7625 8722 c-2 -2 -21 -6 -42 -8 -70 -6 -128 -13 -153 -19 -13 -2
-42 -7 -65 -10 -22 -4 -56 -10 -75 -15 -19 -5 -48 -12 -65 -14 -31 -6 -57 -12
-97 -22 -13 -3 -34 -7 -47 -10 -13 -3 -32 -9 -43 -15 -10 -5 -18 -8 -18 -5 0
3 -15 -1 -34 -9 -18 -8 -36 -11 -40 -8 -3 4 -6 0 -6 -7 0 -7 -3 -11 -6 -7 -4
3 -43 -8 -88 -25 -44 -16 -87 -30 -93 -31 -7 0 -13 -4 -13 -9 0 -4 -3 -7 -7
-6 -9 1 -25 -5 -88 -33 -22 -9 -44 -18 -50 -19 -23 -5 -200 -99 -318 -169 -71
-42 -139 -82 -153 -89 -13 -7 -24 -17 -24 -23 0 -5 -5 -9 -11 -9 -11 0 -79
-48 -91 -65 -4 -5 -8 -6 -8 -1 0 5 -8 -1 -19 -12 -10 -12 -23 -22 -29 -22 -6
0 -12 -3 -14 -7 -1 -5 -25 -26 -53 -48 -27 -22 -66 -53 -85 -70 -59 -50 -313
-307 -350 -353 -19 -24 -42 -52 -51 -62 -8 -10 -24 -31 -35 -45 -10 -15 -23
-32 -29 -39 -29 -32 -65 -86 -65 -96 0 -6 -4 -8 -10 -5 -5 3 -12 -6 -16 -20
-3 -14 -10 -25 -15 -25 -5 0 -14 -11 -19 -25 -5 -14 -15 -31 -20 -38 -40 -45
-188 -318 -245 -452 -9 -22 -21 -49 -26 -60 -8 -19 -31 -75 -34 -85 -1 -3 -7
-18 -14 -35 -11 -25 -51 -143 -57 -167 -1 -5 -2 -9 -4 -10 -1 -3 -6 -21 -13
-50 -1 -7 -6 -19 -11 -26 -4 -7 -5 -16 -2 -19 3 -3 2 -11 -3 -17 -5 -6 -15
-38 -22 -71 -7 -33 -14 -64 -15 -70 -6 -28 -15 -72 -18 -90 -6 -31 -16 -87
-21 -115 -3 -14 -7 -50 -10 -81 -3 -31 -8 -66 -10 -79 -10 -51 -18 -233 -16
-370 3 -255 6 -340 12 -340 3 0 9 -26 13 -57 7 -66 10 -89 21 -153 4 -25 8
-56 9 -70 0 -14 4 -27 7 -30 6 -5 30 -112 33 -145 0 -11 4 -22 8 -25 4 -3 8
-17 10 -30 2 -14 7 -31 11 -38 5 -7 9 -26 9 -42 1 -17 4 -30 7 -30 6 0 32 -75
36 -105 1 -5 6 -19 10 -30 43 -102 65 -162 65 -172 0 -7 5 -13 11 -13 5 0 7
-4 4 -10 -3 -5 -1 -10 4 -10 6 0 10 -3 9 -7 -1 -5 5 -21 12 -38 7 -16 14 -32
15 -35 0 -3 6 -15 13 -27 7 -13 9 -23 5 -23 -4 0 -3 -4 3 -8 6 -4 32 -47 59
-97 67 -125 69 -129 75 -135 3 -3 11 -15 18 -27 6 -13 18 -33 25 -45 6 -13 15
-25 18 -28 9 -7 56 -84 57 -93 1 -4 13 -18 27 -31 14 -13 25 -28 25 -33 0 -5
9 -18 20 -28 11 -10 20 -24 20 -32 0 -7 4 -13 9 -13 5 0 22 -17 38 -38 68 -93
267 -304 378 -402 80 -70 161 -137 195 -160 34 -24 48 -35 92 -72 11 -10 29
-20 39 -23 11 -4 19 -11 19 -16 0 -5 6 -9 13 -9 7 0 23 -9 35 -20 12 -11 26
-20 32 -20 5 0 18 -8 28 -18 10 -10 32 -24 50 -31 18 -7 32 -17 32 -22 0 -5 7
-9 15 -9 8 0 24 -9 34 -19 11 -11 21 -17 24 -15 3 3 20 -4 38 -15 30 -18 95
-51 109 -56 3 -1 40 -18 84 -38 43 -20 84 -37 91 -37 8 0 15 -5 17 -10 2 -6
13 -12 26 -13 12 0 22 -5 22 -10 0 -5 6 -7 14 -4 7 3 18 1 23 -4 5 -5 18 -11
29 -13 10 -3 35 -11 55 -20 20 -8 39 -12 43 -9 3 4 6 1 6 -5 0 -7 3 -11 8 -11
4 1 10 0 15 -1 10 -4 18 -6 52 -14 17 -4 37 -10 45 -13 8 -3 21 -7 29 -9 8 -1
26 -6 40 -10 14 -4 32 -6 39 -5 6 1 12 -3 12 -9 0 -6 5 -8 10 -5 6 4 19 3 28
-1 19 -8 29 -10 91 -19 25 -3 52 -10 61 -15 10 -5 20 -7 23 -4 3 3 12 2 19 -2
7 -5 23 -7 36 -5 13 1 30 -3 38 -9 11 -10 14 -10 14 -1 0 7 5 9 11 6 5 -4 27
-9 47 -11 20 -2 57 -6 82 -9 25 -3 90 -6 145 -8 55 -1 106 -6 113 -10 6 -5 12
-4 12 0 0 5 14 9 30 8 17 0 30 -4 30 -8 0 -5 5 -5 11 -2 6 4 52 9 102 11 119
4 312 19 312 24 0 3 42 10 88 13 26 2 50 7 54 10 3 4 15 7 26 7 11 0 58 9 106
21 47 12 93 22 101 24 30 6 105 26 120 32 8 4 18 7 23 8 4 2 9 4 12 5 3 1 10
4 15 5 6 1 12 4 15 5 8 4 17 7 53 15 17 4 32 12 32 18 0 6 3 8 6 4 6 -5 104
28 179 62 22 10 74 33 115 52 41 18 78 37 81 42 3 5 12 9 20 11 8 1 25 8 39
15 48 26 265 155 277 166 30 25 38 31 46 33 8 2 74 50 95 69 7 7 16 13 20 13
4 0 22 14 40 31 17 16 32 27 32 23 0 -4 11 4 23 17 13 13 45 42 72 64 61 51
265 255 330 330 28 32 59 68 70 81 11 12 29 35 40 50 11 15 26 33 33 40 6 7
12 17 12 23 0 6 4 11 9 11 4 0 23 23 42 52 95 146 122 189 161 258 23 41 44
77 48 80 7 6 18 32 16 40 0 3 9 19 21 36 12 17 20 34 16 38 -3 3 -1 6 5 6 7 0
11 3 10 8 -1 4 13 39 31 77 18 39 49 111 67 160 19 50 39 99 44 110 8 19 23
64 25 75 0 3 4 11 8 18 5 6 6 12 2 12 -3 0 1 15 9 34 8 19 12 37 8 40 -3 3 0
6 6 6 6 0 9 9 7 20 -2 11 1 20 6 20 6 0 8 4 5 8 -3 5 0 26 6 48 7 21 13 42 14
47 1 4 2 8 3 10 2 1 4 13 6 27 2 14 10 59 19 100 48 235 71 683 47 927 -10
101 -48 344 -66 423 -3 14 -8 35 -11 47 -2 12 -9 34 -14 48 -5 14 -9 29 -9 33
1 4 0 10 -1 15 -1 4 -4 12 -5 17 -1 6 -3 11 -5 13 -1 1 -4 15 -6 32 -3 16 -8
32 -12 35 -4 3 -9 16 -11 30 -3 27 -61 186 -93 260 -11 25 -27 61 -35 80 -31
70 -96 205 -102 210 -3 3 -7 11 -9 19 -2 8 -12 27 -23 42 -10 15 -19 30 -19
34 0 3 -14 26 -30 51 -17 24 -28 44 -24 44 4 0 -1 7 -12 15 -10 8 -16 15 -12
15 6 0 -65 108 -109 165 -5 6 -28 37 -53 70 -137 184 -371 424 -560 573 -58
46 -115 91 -127 102 -13 10 -23 17 -23 14 0 -2 -42 25 -92 59 -99 67 -162 105
-243 147 -27 14 -57 30 -65 35 -8 5 -17 10 -20 11 -3 0 -45 20 -95 45 -49 24
-92 44 -95 44 -39 10 -60 19 -60 26 0 5 -3 8 -7 8 -5 -1 -11 0 -15 1 -5 1 -11
3 -15 5 -5 1 -15 4 -23 8 -30 11 -135 48 -150 52 -8 2 -31 9 -50 15 -67 21
-250 68 -250 64 0 -3 -8 -1 -17 5 -10 5 -36 11 -58 15 -22 3 -51 8 -65 11 -23
5 -58 10 -145 20 -16 2 -30 4 -30 5 0 14 -626 22 -642 8 -7 -6 -13 -6 -13 -1
0 8 -37 13 -45 5z m465 -547 c58 -3 121 -7 140 -10 19 -2 55 -7 80 -9 25 -3
56 -9 70 -12 14 -4 39 -8 55 -10 57 -6 264 -59 312 -79 18 -8 33 -11 33 -8 0
3 7 0 15 -7 8 -7 15 -9 15 -5 0 4 7 2 15 -5 8 -7 15 -9 15 -5 0 4 7 2 15 -5 8
-7 15 -10 15 -7 0 3 26 -5 58 -19 31 -14 66 -29 77 -33 48 -21 233 -114 267
-134 20 -12 60 -36 90 -53 49 -29 228 -154 255 -178 6 -6 30 -27 54 -46 24
-19 58 -49 76 -67 18 -17 33 -30 33 -28 0 5 156 -157 197 -205 21 -24 48 -55
61 -68 12 -12 22 -26 22 -31 0 -4 11 -18 25 -31 14 -13 25 -29 25 -36 0 -7 3
-14 8 -16 4 -1 24 -25 43 -53 113 -156 257 -429 315 -595 11 -32 16 -51 14
-56 -1 -4 3 -10 10 -14 6 -4 13 -19 16 -35 3 -16 7 -32 10 -37 3 -4 7 -16 9
-25 3 -10 9 -36 15 -58 6 -22 13 -47 15 -55 2 -8 4 -15 5 -15 2 0 7 -24 15
-70 4 -22 9 -43 11 -46 2 -3 6 -21 9 -40 3 -19 10 -56 15 -84 8 -46 13 -90 26
-220 15 -158 5 -456 -21 -615 -3 -19 -8 -48 -10 -65 -2 -16 -13 -73 -25 -125
-12 -52 -23 -106 -26 -119 -3 -13 -9 -32 -15 -43 -5 -10 -8 -18 -5 -18 3 0 -2
-16 -10 -35 -8 -19 -15 -38 -15 -42 -1 -5 -5 -18 -10 -31 -5 -13 -9 -27 -9
-32 0 -16 -63 -166 -118 -280 -30 -63 -54 -118 -54 -122 1 -5 -3 -8 -9 -8 -5
0 -7 -4 -4 -10 3 -5 2 -10 -3 -10 -5 0 -17 -15 -26 -32 -9 -18 -26 -46 -36
-63 -11 -16 -29 -46 -40 -65 -11 -19 -31 -48 -43 -65 -90 -122 -119 -159 -176
-225 -127 -149 -317 -323 -476 -436 -94 -67 -183 -124 -195 -124 -6 0 -10 -3
-10 -7 0 -5 -10 -13 -23 -19 -12 -6 -65 -33 -117 -60 -52 -28 -120 -60 -150
-73 -30 -12 -64 -26 -75 -31 -19 -9 -74 -32 -85 -35 -3 -1 -39 -12 -80 -25
-41 -13 -78 -24 -82 -25 -3 0 -9 -3 -13 -7 -4 -4 -13 -4 -21 -1 -8 3 -14 -1
-14 -8 0 -7 -3 -10 -6 -6 -3 3 -27 -1 -52 -8 -25 -8 -48 -12 -50 -10 -3 2 -12
0 -22 -5 -18 -10 -48 -16 -120 -26 -25 -3 -48 -8 -51 -10 -4 -2 -35 -6 -70 -9
-35 -3 -77 -8 -94 -11 -59 -9 -389 -12 -412 -3 -15 5 -23 5 -23 -2 0 -6 -3 -8
-8 -5 -7 4 -81 13 -172 22 -19 1 -35 4 -35 5 0 1 -9 3 -20 4 -11 1 -38 6 -60
10 -22 4 -49 9 -60 10 -11 2 -29 6 -40 9 -30 7 -107 26 -130 32 -11 3 -27 7
-35 9 -8 2 -16 4 -17 5 -2 2 -7 4 -13 5 -5 1 -12 3 -15 4 -3 0 -7 1 -10 2 -10
1 -148 50 -221 79 -81 33 -272 125 -333 162 -133 80 -246 156 -283 191 -10 9
-21 17 -24 16 -3 -1 -31 21 -61 48 -30 26 -67 57 -81 68 -37 30 -199 193 -257
260 -27 31 -56 64 -63 71 -7 8 -10 14 -6 14 4 0 -2 8 -13 17 -22 20 -153 200
-161 223 -3 8 -15 29 -28 45 -12 17 -25 40 -29 53 -3 12 -10 22 -14 22 -4 0
-13 16 -20 35 -7 19 -17 35 -22 35 -5 0 -8 3 -7 8 2 4 -19 52 -46 107 -27 55
-49 104 -51 110 -1 5 -5 17 -8 25 -14 33 -30 75 -32 83 -2 4 -4 9 -5 12 -1 3
-4 10 -5 15 -1 6 -4 13 -5 18 -1 4 -2 10 -1 15 0 4 -4 7 -11 7 -6 0 -9 3 -5 6
3 3 -1 24 -8 45 -39 108 -100 382 -91 405 3 8 1 14 -5 14 -6 0 -9 12 -8 28 2
15 0 32 -4 39 -4 6 -7 22 -7 34 1 13 -2 62 -6 109 -11 148 -6 409 11 520 3 19
5 42 6 50 2 36 42 233 66 320 14 52 27 106 30 120 3 14 9 30 14 36 5 6 11 21
13 35 3 13 5 25 7 27 1 1 2 5 4 10 1 4 7 20 13 35 7 16 12 30 12 32 0 2 9 24
20 49 11 26 19 49 19 51 0 9 144 290 151 295 4 3 10 12 14 20 12 25 29 53 71
114 22 32 45 65 50 74 71 111 294 355 436 478 120 103 369 283 369 266 0 -4 4
-2 8 4 13 20 266 153 342 179 3 1 23 10 45 20 22 10 46 18 53 18 6 0 12 5 12
10 0 6 2 8 6 5 3 -3 28 3 57 14 52 20 179 59 207 63 8 1 22 5 30 8 14 6 113
26 155 33 11 2 31 5 45 8 68 14 180 25 288 30 40 2 74 5 76 7 5 5 99 3 246 -6z"/>
<path d="M7836 7913 c-1 -2 -38 -5 -82 -8 -97 -6 -155 -12 -191 -19 -25 -5
-55 -10 -118 -21 -56 -10 -170 -39 -205 -52 -8 -3 -20 -7 -27 -9 -31 -6 -89
-28 -100 -37 -7 -5 -13 -7 -13 -3 0 10 -105 -33 -250 -104 -386 -188 -735
-497 -978 -869 -30 -46 -66 -104 -80 -130 -41 -76 -122 -240 -122 -247 0 -3
-6 -20 -14 -37 -36 -83 -91 -248 -102 -311 -3 -16 -7 -33 -10 -38 -3 -5 -7
-18 -10 -31 -2 -12 -6 -33 -9 -47 -3 -14 -8 -41 -11 -60 -2 -19 -9 -57 -14
-85 -29 -154 -31 -498 -5 -685 16 -107 17 -116 50 -265 4 -16 29 -104 59 -200
2 -5 6 -19 10 -30 5 -11 17 -45 28 -75 61 -163 201 -417 304 -553 24 -31 44
-60 44 -63 0 -3 6 -11 13 -18 6 -7 30 -34 52 -60 91 -110 266 -277 380 -363
119 -91 228 -163 245 -163 6 0 10 -4 10 -8 0 -9 282 -152 299 -152 6 0 19 -4
29 -9 36 -18 188 -75 214 -80 4 -1 13 -3 20 -5 7 -3 27 -8 43 -12 17 -4 35 -8
40 -10 35 -8 73 -16 95 -20 14 -2 45 -8 70 -13 205 -43 552 -48 790 -11 80 13
154 24 165 26 11 1 21 3 23 4 2 3 6 4 47 14 55 14 258 78 294 93 20 9 37 15
38 15 7 -2 202 93 226 110 15 11 27 16 27 12 0 -4 9 1 20 11 11 10 20 15 20
11 0 -4 15 3 33 16 17 13 39 28 48 33 52 32 168 113 191 133 14 13 28 22 31
20 3 -1 13 7 23 18 11 12 56 54 101 93 71 62 115 108 274 289 16 18 29 35 29
38 0 3 12 22 28 42 26 36 33 45 60 76 6 8 12 18 12 21 0 4 13 26 29 49 26 37
50 82 136 246 35 66 66 145 64 164 0 5 4 12 11 16 6 4 12 13 13 21 2 8 6 20
10 27 5 6 5 17 2 22 -3 6 -1 10 4 10 6 0 10 3 9 8 -1 4 4 23 11 42 14 36 15
39 26 100 4 19 10 37 13 40 4 3 8 12 8 20 1 8 13 76 27 150 49 257 55 505 20
770 -9 69 -17 135 -17 148 -1 12 -4 22 -8 22 -5 0 -8 8 -8 18 0 9 -12 62 -26
117 -30 118 -29 114 -38 140 -5 11 -12 31 -16 45 -71 216 -265 574 -379 698
-16 17 -28 32 -25 32 3 0 -1 6 -8 14 -7 8 -33 38 -58 66 -66 76 -169 179 -224
225 -27 22 -58 49 -71 60 -33 30 -95 79 -114 89 -9 5 -18 12 -21 16 -17 21
-337 211 -365 216 -5 1 -35 13 -65 27 -79 37 -260 104 -305 113 -11 2 -54 13
-95 24 -41 12 -88 23 -105 25 -16 3 -41 7 -55 10 -14 3 -43 7 -65 10 -22 3
-56 8 -75 11 -75 11 -376 24 -384 17z m-181 -989 l1 -414 -51 -17 c-27 -9 -52
-18 -55 -18 -17 -5 -73 -29 -120 -53 l-55 -28 -291 293 c-260 261 -290 294
-275 306 82 72 357 217 486 257 22 7 46 18 54 24 8 6 17 10 20 8 6 -3 81 14
111 26 8 3 19 4 24 3 5 -1 16 1 25 5 19 9 27 10 71 19 19 3 36 8 39 11 2 2 7
1 10 -2 3 -3 6 -192 6 -420z m585 408 c3 1 28 -3 55 -7 28 -5 53 -8 58 -7 4 1
7 -3 7 -9 0 -5 4 -8 9 -5 4 3 39 -4 77 -15 38 -11 74 -22 79 -23 6 -2 17 -6
25 -9 8 -4 42 -16 75 -28 72 -27 259 -119 263 -131 2 -4 8 -8 14 -8 11 0 149
-90 159 -103 3 -4 -126 -141 -287 -303 -279 -280 -295 -294 -316 -282 -13 7
-25 16 -28 19 -5 6 -74 39 -95 45 -5 1 -34 12 -63 23 -29 11 -56 20 -59 20 -4
1 -7 190 -7 420 -1 369 1 418 14 411 8 -4 17 -8 20 -8z m-1549 -1031 c159
-159 289 -294 289 -300 0 -6 -16 -43 -35 -81 -19 -39 -32 -70 -29 -70 4 0 2
-6 -3 -12 -13 -17 -42 -105 -37 -111 3 -2 -182 -4 -411 -4 -229 0 -417 3 -419
6 -7 13 37 198 73 310 48 147 127 313 211 449 36 56 66 102 68 102 2 0 134
-130 293 -289z m2812 229 c9 -19 30 -53 38 -60 8 -8 82 -140 101 -180 44 -96
60 -134 63 -150 2 -10 8 -26 14 -36 23 -42 70 -219 95 -355 l4 -27 -411 1
c-407 0 -412 1 -424 21 -7 12 -12 28 -13 37 0 9 -11 43 -25 75 -39 89 -48 107
-63 126 -13 16 14 46 279 312 l294 296 20 -23 c12 -12 24 -29 28 -37z m-1502
-544 c31 -3 69 -10 85 -17 16 -6 40 -15 54 -21 14 -5 27 -9 30 -9 3 0 12 -6
20 -13 8 -6 28 -18 44 -26 30 -15 156 -147 156 -163 0 -5 9 -21 19 -36 19 -26
50 -120 58 -171 3 -26 6 -131 3 -140 -1 -3 -3 -18 -5 -35 -16 -150 -137 -311
-292 -392 -46 -24 -83 -41 -83 -39 0 2 -24 -2 -52 -9 -194 -45 -430 46 -545
210 -32 46 -74 125 -67 125 4 0 2 6 -4 13 -6 7 -13 26 -16 42 -2 17 -5 30 -6
30 -5 0 -10 58 -10 110 1 56 6 120 10 120 1 0 7 19 13 48 1 8 18 45 36 83 58
119 215 250 320 269 19 3 41 9 50 14 9 4 34 9 56 10 22 2 42 4 43 6 2 2 9 2
15 0 7 -2 37 -6 68 -9z m-1132 -822 c4 -5 20 -43 34 -85 15 -42 40 -101 56
-132 l29 -55 -291 -291 c-159 -160 -295 -290 -301 -288 -5 2 -19 19 -29 38
-11 19 -23 36 -28 37 -5 2 -9 8 -9 14 0 5 -9 23 -21 39 -18 25 -124 225 -127
239 -1 6 -21 58 -34 90 -6 14 -12 30 -13 35 -2 6 -10 33 -20 60 -14 41 -48
180 -70 282 -5 20 -1 22 52 25 129 7 765 0 772 -8z m2943 7 c4 -1 5 -11 2 -23
-2 -13 -6 -34 -9 -48 -10 -52 -13 -66 -25 -110 -7 -25 -13 -49 -14 -55 -6 -28
-29 -101 -38 -124 -6 -14 -12 -31 -14 -38 -15 -76 -229 -463 -255 -463 -5 0
-138 130 -296 290 l-289 290 37 75 c20 41 46 105 58 143 l21 67 407 -2 c225
-1 411 -2 415 -2z m-2382 -696 c28 -14 53 -25 56 -24 4 0 10 -4 13 -10 4 -6
16 -12 26 -14 11 -1 25 -5 30 -8 6 -4 30 -12 55 -19 l45 -13 0 -416 c0 -410 0
-416 -20 -415 -18 2 -35 5 -101 18 -12 2 -39 10 -60 16 -22 6 -52 14 -69 17
-16 3 -32 8 -35 11 -3 4 -12 9 -20 11 -8 2 -19 4 -25 6 -5 1 -19 6 -30 10 -11
4 -49 19 -85 33 -82 31 -219 101 -288 147 -30 19 -56 35 -59 35 -2 0 -10 6
-17 13 -8 6 -23 19 -35 27 -21 14 -12 24 271 307 161 161 294 293 296 293 1 0
25 -11 52 -25z m1109 -30 c29 -30 56 -55 62 -55 5 0 9 -4 9 -8 0 -4 103 -111
230 -237 126 -127 230 -232 230 -235 0 -3 -9 -10 -19 -15 -21 -11 -175 -107
-204 -127 -10 -7 -22 -13 -27 -13 -5 0 -15 -6 -21 -12 -7 -7 -17 -13 -21 -13
-4 0 -35 -13 -68 -29 -33 -16 -60 -27 -60 -24 0 3 -7 0 -15 -7 -8 -7 -15 -9
-15 -5 0 4 -6 3 -12 -2 -14 -10 -111 -45 -163 -59 -16 -4 -32 -8 -35 -9 -26
-7 -77 -18 -140 -30 -14 -3 -34 -7 -45 -9 -20 -4 -20 1 -18 408 0 226 1 414 2
417 1 3 27 13 59 23 65 21 185 76 190 88 8 19 32 5 81 -47z"/>
<path d="M3490 7879 c0 -5 5 -7 10 -4 6 3 10 8 10 11 0 2 -4 4 -10 4 -5 0 -10
-5 -10 -11z"/>
<path d="M3655 7860 c3 -5 8 -10 11 -10 2 0 4 5 4 10 0 6 -5 10 -11 10 -5 0
-7 -4 -4 -10z"/>
<path d="M3025 7840 c10 -11 20 -20 23 -20 3 0 -3 9 -13 20 -10 11 -20 20 -23
20 -3 0 3 -9 13 -20z"/>
<path d="M3490 7840 c0 -5 5 -10 11 -10 5 0 7 5 4 10 -3 6 -8 10 -11 10 -2 0
-4 -4 -4 -10z"/>
<path d="M3545 7839 c-3 -4 2 -6 10 -5 21 3 28 13 10 13 -9 0 -18 -4 -20 -8z"/>
<path d="M3396 7813 c-6 -14 -5 -15 5 -6 7 7 10 15 7 18 -3 3 -9 -2 -12 -12z"/>
<path d="M3716 7798 c3 -5 10 -6 15 -3 13 9 11 12 -6 12 -8 0 -12 -4 -9 -9z"/>
<path d="M3456 7782 c-3 -5 1 -9 9 -9 8 0 12 4 9 9 -3 4 -7 8 -9 8 -2 0 -6 -4
-9 -8z"/>
<path d="M3514 7782 c4 -3 14 -7 22 -8 9 -1 13 0 10 4 -4 3 -14 7 -22 8 -9 1
-13 0 -10 -4z"/>
<path d="M3576 7778 c3 -4 11 -5 19 -1 21 7 19 12 -4 10 -11 0 -18 -5 -15 -9z"/>
<path d="M3710 7766 c0 -2 7 -7 16 -10 8 -3 12 -2 9 4 -6 10 -25 14 -25 6z"/>
<path d="M3416 7742 c-3 -5 1 -9 9 -9 8 0 12 4 9 9 -3 4 -7 8 -9 8 -2 0 -6 -4
-9 -8z"/>
<path d="M3494 7742 c4 -3 14 -7 22 -8 9 -1 13 0 10 4 -4 3 -14 7 -22 8 -9 1
-13 0 -10 -4z"/>
<path d="M3795 7740 c3 -5 8 -10 11 -10 2 0 4 5 4 10 0 6 -5 10 -11 10 -5 0
-7 -4 -4 -10z"/>
<path d="M3220 7720 c-9 -6 -10 -10 -3 -10 6 0 15 5 18 10 8 12 4 12 -15 0z"/>
<path d="M3330 7720 c0 -5 5 -10 11 -10 5 0 7 5 4 10 -3 6 -8 10 -11 10 -2 0
-4 -4 -4 -10z"/>
<path d="M3550 7720 c0 -5 5 -10 11 -10 5 0 7 5 4 10 -3 6 -8 10 -11 10 -2 0
-4 -4 -4 -10z"/>
<path d="M3436 7687 c3 -10 9 -15 12 -12 3 3 0 11 -7 18 -10 9 -11 8 -5 -6z"/>
<path d="M3190 7644 c0 -20 27 -37 36 -23 4 7 3 9 -4 5 -6 -3 -15 2 -21 11 -6
10 -11 13 -11 7z"/>
<path d="M3250 7639 c0 -5 5 -7 10 -4 6 3 10 8 10 11 0 2 -4 4 -10 4 -5 0 -10
-5 -10 -11z"/>
<path d="M3076 7627 c3 -10 9 -15 12 -12 3 3 0 11 -7 18 -10 9 -11 8 -5 -6z"/>
<path d="M3096 7578 c3 -5 10 -6 15 -3 13 9 11 12 -6 12 -8 0 -12 -4 -9 -9z"/>
<path d="M2915 7561 c-3 -5 -2 -12 3 -15 5 -3 9 1 9 9 0 17 -3 19 -12 6z"/>
<path d="M2976 7558 c3 -5 10 -6 15 -3 13 9 11 12 -6 12 -8 0 -12 -4 -9 -9z"/>
<path d="M2773 7475 c0 -8 4 -12 9 -9 5 3 6 10 3 15 -9 13 -12 11 -12 -6z"/>
<path d="M2595 7421 c-3 -5 -2 -12 3 -15 5 -3 9 1 9 9 0 17 -3 19 -12 6z"/>
<path d="M2470 7366 c0 -2 7 -7 16 -10 8 -3 12 -2 9 4 -6 10 -25 14 -25 6z"/>
<path d="M2036 7318 c3 -5 10 -6 15 -3 13 9 11 12 -6 12 -8 0 -12 -4 -9 -9z"/>
<path d="M2310 7279 c0 -5 5 -7 10 -4 6 3 10 8 10 11 0 2 -4 4 -10 4 -5 0 -10
-5 -10 -11z"/>
<path d="M1786 7042 c-3 -5 1 -9 9 -9 8 0 12 4 9 9 -3 4 -7 8 -9 8 -2 0 -6 -4
-9 -8z"/>
<path d="M1350 6681 c0 -6 4 -13 10 -16 6 -3 7 1 4 9 -7 18 -14 21 -14 7z"/>
<path d="M4309 6083 c-13 -16 -12 -17 4 -4 9 7 17 15 17 17 0 8 -8 3 -21 -13z"/>
<path d="M4293 5125 c0 -8 4 -12 9 -9 5 3 6 10 3 15 -9 13 -12 11 -12 -6z"/>
<path d="M4319 4973 c-13 -16 -12 -17 4 -4 16 13 21 21 13 21 -2 0 -10 -8 -17
-17z"/>
<path d="M1876 4758 c3 -5 10 -6 15 -3 13 9 11 12 -6 12 -8 0 -12 -4 -9 -9z"/>
<path d="M4630 3846 c0 -2 7 -7 16 -10 8 -3 12 -2 9 4 -6 10 -25 14 -25 6z"/>
<path d="M2990 3656 c0 -2 8 -10 18 -17 15 -13 16 -12 3 4 -13 16 -21 21 -21
13z"/>
<path d="M3156 3598 c3 -5 10 -6 15 -3 13 9 11 12 -6 12 -8 0 -12 -4 -9 -9z"/>
<path d="M3255 3560 c3 -5 8 -10 11 -10 2 0 4 5 4 10 0 6 -5 10 -11 10 -5 0
-7 -4 -4 -10z"/>
<path d="M3195 3540 c3 -5 8 -10 11 -10 2 0 4 5 4 10 0 6 -5 10 -11 10 -5 0
-7 -4 -4 -10z"/>
<path d="M2833 3285 c0 -8 4 -12 9 -9 5 3 6 10 3 15 -9 13 -12 11 -12 -6z"/>
<path d="M5030 3199 c0 -5 5 -7 10 -4 6 3 10 8 10 11 0 2 -4 4 -10 4 -5 0 -10
-5 -10 -11z"/>
<path d="M5196 3193 c-6 -14 -5 -15 5 -6 7 7 10 15 7 18 -3 3 -9 -2 -12 -12z"/>
<path d="M2793 3167 c0 -8 6 -14 14 -14 9 0 10 4 2 14 -6 7 -12 13 -14 13 -1
0 -2 -6 -2 -13z"/>
<path d="M2750 3086 c0 -2 7 -7 16 -10 8 -3 12 -2 9 4 -6 10 -25 14 -25 6z"/>
<path d="M5185 3039 c-3 -4 2 -6 10 -5 21 3 28 13 10 13 -9 0 -18 -4 -20 -8z"/>
<path d="M5495 2889 c-4 -6 -5 -12 -2 -15 2 -3 7 2 10 11 7 17 1 20 -8 4z"/>
<path d="M2715 2851 c-3 -5 -2 -12 3 -15 5 -3 9 1 9 9 0 17 -3 19 -12 6z"/>
<path d="M5950 2521 c0 -6 4 -13 10 -16 6 -3 7 1 4 9 -7 18 -14 21 -14 7z"/>
<path d="M2560 2400 c-9 -6 -10 -10 -3 -10 6 0 15 5 18 10 8 12 4 12 -15 0z"/>
<path d="M5950 2360 c0 -5 5 -10 11 -10 5 0 7 5 4 10 -3 6 -8 10 -11 10 -2 0
-4 -4 -4 -10z"/>
<path d="M6395 2169 c-4 -6 -5 -12 -2 -15 2 -3 7 2 10 11 7 17 1 20 -8 4z"/>
<path d="M6235 2160 c3 -5 8 -10 11 -10 2 0 4 5 4 10 0 6 -5 10 -11 10 -5 0
-7 -4 -4 -10z"/>
<path d="M7555 2131 c-3 -5 -2 -12 3 -15 5 -3 9 1 9 9 0 17 -3 19 -12 6z"/>
<path d="M6559 2088 c-5 -18 -6 -38 -1 -34 7 8 12 36 6 36 -2 0 -4 -1 -5 -2z"/>
<path d="M7116 2073 c-6 -14 -5 -15 5 -6 7 7 10 15 7 18 -3 3 -9 -2 -12 -12z"/>
<path d="M3150 2056 c0 -2 8 -10 18 -17 15 -13 16 -12 3 4 -13 16 -21 21 -21
13z"/>
<path d="M6767 1959 c7 -7 15 -10 18 -7 3 3 -2 9 -12 12 -14 6 -15 5 -6 -5z"/>
<path d="M7396 1953 c-6 -14 -5 -15 5 -6 7 7 10 15 7 18 -3 3 -9 -2 -12 -12z"/>
<path d="M7670 1946 c0 -2 7 -7 16 -10 8 -3 12 -2 9 4 -6 10 -25 14 -25 6z"/>
</g>
</svg>
