<svg width="40" height="40" viewBox="0 0 40 40" fill="none" xmlns="http://www.w3.org/2000/svg">
<path d="M15.8333 16.6667C16.2936 16.6667 16.6667 16.2936 16.6667 15.8334C16.6667 15.3731 16.2936 15 15.8333 15C15.3731 15 15 15.3731 15 15.8334C15 16.2936 15.3731 16.6667 15.8333 16.6667Z" fill="#EAC159"/>
<path d="M24.1667 25C24.6269 25 25 24.6269 25 24.1667C25 23.7064 24.6269 23.3334 24.1667 23.3334C23.7064 23.3334 23.3333 23.7064 23.3333 24.1667C23.3333 24.6269 23.7064 25 24.1667 25Z" fill="#EAC159"/>
<path d="M30 6.66669H9.99999C8.15904 6.66669 6.66666 8.15907 6.66666 10V30C6.66666 31.841 8.15904 33.3334 9.99999 33.3334H30C31.8409 33.3334 33.3333 31.841 33.3333 30V10C33.3333 8.15907 31.8409 6.66669 30 6.66669Z" stroke="#EAC159" stroke-width="3" stroke-linecap="round" stroke-linejoin="round"/>
<path d="M15.8333 16.6667C16.2936 16.6667 16.6667 16.2936 16.6667 15.8334C16.6667 15.3731 16.2936 15 15.8333 15C15.3731 15 15 15.3731 15 15.8334C15 16.2936 15.3731 16.6667 15.8333 16.6667Z" stroke="#EAC159" stroke-width="3" stroke-linecap="round" stroke-linejoin="round"/>
<path d="M24.1667 25C24.6269 25 25 24.6269 25 24.1667C25 23.7064 24.6269 23.3334 24.1667 23.3334C23.7064 23.3334 23.3333 23.7064 23.3333 24.1667C23.3333 24.6269 23.7064 25 24.1667 25Z" stroke="#EAC159" stroke-width="3" stroke-linecap="round" stroke-linejoin="round"/>
</svg>
