<svg width="40" height="40" viewBox="0 0 40 40" fill="none" xmlns="http://www.w3.org/2000/svg">
<path d="M13.3333 35H26.6667M20 28.3334V35M20 28.3334C22.2101 28.3334 24.3298 27.4554 25.8926 25.8926C27.4554 24.3298 28.3333 22.2102 28.3333 20V6.66669H11.6667V20C11.6667 22.2102 12.5446 24.3298 14.1074 25.8926C15.6702 27.4554 17.7899 28.3334 20 28.3334ZM11.6667 15C11.6667 16.841 10.1743 18.3334 8.33333 18.3334C6.49238 18.3334 5 16.841 5 15C5 13.1591 6.49238 11.6667 8.33333 11.6667C10.1743 11.6667 11.6667 13.1591 11.6667 15ZM35 15C35 16.841 33.5076 18.3334 31.6667 18.3334C29.8257 18.3334 28.3333 16.841 28.3333 15C28.3333 13.1591 29.8257 11.6667 31.6667 11.6667C33.5076 11.6667 35 13.1591 35 15Z" stroke="#EAC159" stroke-width="3" stroke-linecap="round" stroke-linejoin="round"/>
</svg>
