<svg width="40" height="40" viewBox="0 0 40 40" fill="none" xmlns="http://www.w3.org/2000/svg">
<path d="M35 10C35 12.7614 31.269 15 26.6667 15C22.0643 15 18.3333 12.7614 18.3333 10M35 10C35 7.23858 31.269 5 26.6667 5C22.0643 5 18.3333 7.23858 18.3333 10M35 10V16.6667M18.3333 10V16.6667M18.3333 16.6667C18.3333 19.4283 22.065 21.6667 26.6667 21.6667C31.2683 21.6667 35 19.4283 35 16.6667M18.3333 16.6667V23.3333M35 16.6667V23.3333M18.3333 23.3333C18.3333 26.095 22.065 28.3333 26.6667 28.3333C31.2683 28.3333 35 26.095 35 23.3333M18.3333 23.3333V30C18.3333 32.7617 22.065 35 26.6667 35C31.2683 35 35 32.7617 35 30V23.3333M11.6667 15H7.5C6.83696 15 6.20107 15.2634 5.73223 15.7322C5.26339 16.2011 5 16.837 5 17.5C5 18.163 5.26339 18.7989 5.73223 19.2678C6.20107 19.7366 6.83696 20 7.5 20H9.16667C9.82971 20 10.4656 20.2634 10.9344 20.7322C11.4033 21.2011 11.6667 21.837 11.6667 22.5C11.6667 23.163 11.4033 23.7989 10.9344 24.2678C10.4656 24.7366 9.82971 25 9.16667 25H5M8.33333 25V26.6667M8.33333 13.3333V15" stroke="#EAC159" stroke-width="3" stroke-linecap="round" stroke-linejoin="round"/>
</svg>
