<svg width="40" height="40" viewBox="0 0 40 40" fill="none" xmlns="http://www.w3.org/2000/svg">
<path d="M30 20H30.0167M10 20H10.0167M25 20C25 22.7614 22.7614 25 20 25C17.2386 25 15 22.7614 15 20C15 17.2386 17.2386 15 20 15C22.7614 15 25 17.2386 25 20ZM8.33333 10H31.6667C33.5076 10 35 11.4924 35 13.3333V26.6667C35 28.5076 33.5076 30 31.6667 30H8.33333C6.49238 30 5 28.5076 5 26.6667V13.3333C5 11.4924 6.49238 10 8.33333 10Z" stroke="#EAC159" stroke-width="3" stroke-linecap="round" stroke-linejoin="round"/>
</svg>
