<svg width="20" height="15" viewBox="0 0 20 15" fill="none" xmlns="http://www.w3.org/2000/svg">
<g clip-path="url(#clip0_1836_157)">
<rect x="6.10352e-05" width="20" height="15" rx="3" fill="#F93939"/>
<path d="M18.0953 0H1.90482C0.852852 0 6.10352e-05 0.89543 6.10352e-05 2V13C6.10352e-05 14.1046 0.852852 15 1.90482 15H18.0953C19.1473 15 20.0001 14.1046 20.0001 13V2C20.0001 0.89543 19.1473 0 18.0953 0Z" fill="#F93939"/>
<path fill-rule="evenodd" clip-rule="evenodd" d="M5.23638 7.23L3.83638 8.003L4.10305 6.366L2.97162 5.206L4.53638 4.969L5.23638 3.479L5.93543 4.969L7.50019 5.206L6.36686 6.366L6.63543 8.002L5.23638 7.23ZM8.57162 3H9.524V4H8.57162V3ZM9.524 5H10.4764V6H9.524V5ZM9.524 7H10.4764V8H9.524V7ZM8.57162 9H9.524V10H8.57162V9Z" fill="#FFDA2C"/>
</g>
<defs>
<clipPath id="clip0_1836_157">
<rect x="6.10352e-05" width="20" height="15" rx="3" fill="white"/>
</clipPath>
</defs>
</svg>
