<svg width="20" height="15" viewBox="0 0 20 15" fill="none" xmlns="http://www.w3.org/2000/svg">
<g clip-path="url(#clip0_1836_145)">
<rect x="6.10352e-05" width="20" height="15" rx="3" fill="white"/>
<path fill-rule="evenodd" clip-rule="evenodd" d="M6.10352e-05 0H8.57149V7H6.10352e-05V0Z" fill="#1A47B8"/>
<path fill-rule="evenodd" clip-rule="evenodd" d="M8.57149 0V1H20.0001V0H8.57149ZM8.57149 2V3H20.0001V2H8.57149ZM8.57149 4V5H20.0001V4H8.57149ZM8.57149 6V7H20.0001V6H8.57149ZM6.10352e-05 8V9H20.0001V8H6.10352e-05ZM6.10352e-05 10V11H20.0001V10H6.10352e-05ZM6.10352e-05 12V13H20.0001V12H6.10352e-05ZM6.10352e-05 14V15H20.0001V14H6.10352e-05Z" fill="#F93939"/>
<path fill-rule="evenodd" clip-rule="evenodd" d="M0.952454 1V2H1.90483V1H0.952454ZM2.85722 1V2H3.8096V1H2.85722ZM4.76198 1V2H5.71436V1H4.76198ZM6.66674 1V2H7.61912V1H6.66674ZM5.71436 2V3H6.66674V2H5.71436ZM3.8096 2V3H4.76198V2H3.8096ZM1.90483 2V3H2.85722V2H1.90483ZM0.952454 3V4H1.90483V3H0.952454ZM2.85722 3V4H3.8096V3H2.85722ZM4.76198 3V4H5.71436V3H4.76198ZM6.66674 3V4H7.61912V3H6.66674ZM0.952454 5V6H1.90483V5H0.952454ZM2.85722 5V6H3.8096V5H2.85722ZM4.76198 5V6H5.71436V5H4.76198ZM6.66674 5V6H7.61912V5H6.66674ZM5.71436 4V5H6.66674V4H5.71436ZM3.8096 4V5H4.76198V4H3.8096ZM1.90483 4V5H2.85722V4H1.90483Z" fill="white"/>
</g>
<defs>
<clipPath id="clip0_1836_145">
<rect x="6.10352e-05" width="20" height="15" rx="3" fill="white"/>
</clipPath>
</defs>
</svg>
