<svg width="20" height="15" viewBox="0 0 20 15" fill="none" xmlns="http://www.w3.org/2000/svg">
<rect x="6.10352e-05" width="20" height="15" rx="3" fill="#F93939"/>
<path fill-rule="evenodd" clip-rule="evenodd" d="M13.3353 8.65204L12.2286 9.26204L12.44 7.96904L11.5448 7.05204L12.7829 6.86204L13.3353 5.68604L13.8877 6.86304L15.1258 7.05304L14.2305 7.96804L14.4419 9.26103" fill="white"/>
<path fill-rule="evenodd" clip-rule="evenodd" d="M9.04769 11C10.8886 11 12.381 9.433 12.381 7.5C12.381 5.567 10.8886 4 9.04769 4C7.20674 4 5.71436 5.567 5.71436 7.5C5.71436 9.433 7.20674 11 9.04769 11ZM10.0001 10C11.3144 10 12.381 8.88 12.381 7.5C12.381 6.12 11.3144 5 10.0001 5C8.68578 5 7.61912 6.12 7.61912 7.5C7.61912 8.88 8.68578 10 10.0001 10Z" fill="white"/>
</svg>
